<?xml version="1.0" standalone="no"?>
<!DOCTYPE svg PUBLIC "-//W3C//DTD SVG 20010904//EN"
 "http://www.w3.org/TR/2001/REC-SVG-20010904/DTD/svg10.dtd">
<svg version="1.0" xmlns="http://www.w3.org/2000/svg"
 width="233.000000pt" height="216.000000pt" viewBox="0 0 233.000000 216.000000"
 preserveAspectRatio="xMidYMid meet">

<g transform="translate(0.000000,216.000000) scale(0.100000,-0.100000)"
fill="#000000" stroke="none">
<path d="M583 2132 c-10 -7 -17 -18 -15 -23 1 -5 -2 -9 -8 -9 -6 0 -9 -63 -8
-172 l2 -173 3 164 c4 181 10 202 49 176 13 -9 24 -11 24 -5 0 5 -5 10 -12 10
-6 0 -4 7 5 18 10 10 17 21 17 25 0 10 -38 3 -57 -11z m33 -11 c-9 -8 -18 -12
-22 -9 -9 10 3 25 21 25 14 0 14 -2 1 -16z"/>
<path d="M551 1713 l-1 -43 -235 0 c-269 0 -287 -4 -304 -68 -7 -23 -11 -219
-11 -530 0 -537 1 -552 55 -572 15 -6 128 -10 255 -10 l229 0 3 -215 3 -215
28 -27 27 -28 835 0 835 0 27 28 28 27 3 510 3 510 -433 0 c-283 0 -428 4
-418 10 10 6 11 10 3 10 -10 0 -13 62 -15 262 l-3 262 -82 -2 -83 -1 0 29 c0
17 -4 30 -10 30 -5 0 -10 6 -10 13 0 34 -48 38 -386 37 -262 0 -333 2 -337 12
-3 7 -6 -6 -6 -29z m-111 -312 l46 -1 59 -119 59 -120 64 117 c35 64 65 118
66 119 1 2 34 4 72 5 47 1 68 -2 67 -10 -2 -6 -43 -77 -93 -157 -49 -80 -90
-148 -90 -152 0 -4 43 -75 95 -159 52 -83 95 -156 95 -160 0 -5 -34 -7 -76 -4
l-77 5 -57 108 c-32 60 -62 113 -67 118 -5 5 -34 -38 -73 -110 l-65 -120 -78
-3 c-78 -3 -88 2 -64 31 19 23 187 287 187 294 0 3 -42 76 -94 161 -52 85 -90
156 -84 158 6 2 22 3 37 2 14 -1 46 -2 71 -3z"/>
</g>
</svg>
